<svg width="30" height="31" viewBox="0 0 30 31" fill="none" xmlns="http://www.w3.org/2000/svg">
<path d="M24.6446 4.70702L2.80085 10.8594C2.61491 10.9102 2.44916 11.0171 2.32617 11.1656C2.20319 11.314 2.12895 11.4968 2.11358 11.6889C2.09821 11.8811 2.14245 12.0733 2.24027 12.2394C2.33808 12.4055 2.48473 12.5374 2.66023 12.6172L12.6915 17.3633C12.888 17.4543 13.0458 17.6121 13.1368 17.8086L17.8829 27.8398C17.9626 28.0153 18.0946 28.162 18.2607 28.2598C18.4268 28.3576 18.619 28.4019 18.8111 28.3865C19.0033 28.3711 19.1861 28.2969 19.3345 28.1739C19.4829 28.0509 19.5899 27.8852 19.6407 27.6992L25.793 5.85546C25.8397 5.69606 25.8425 5.52705 25.8014 5.36615C25.7602 5.20526 25.6765 5.05839 25.5591 4.94095C25.4417 4.82352 25.2948 4.73984 25.1339 4.69868C24.973 4.65752 24.804 4.6604 24.6446 4.70702V4.70702Z" stroke="white" stroke-width="2" stroke-linecap="round" stroke-linejoin="round"/>
<path d="M12.9961 17.5039L18.293 12.207" stroke="white" stroke-width="2" stroke-linecap="round" stroke-linejoin="round"/>
</svg>
