<svg width="31" height="30" viewBox="0 0 31 30" fill="none" xmlns="http://www.w3.org/2000/svg">
<path d="M24.875 4.6875H6.125C5.60723 4.6875 5.1875 5.10723 5.1875 5.625V24.375C5.1875 24.8928 5.60723 25.3125 6.125 25.3125H24.875C25.3928 25.3125 25.8125 24.8928 25.8125 24.375V5.625C25.8125 5.10723 25.3928 4.6875 24.875 4.6875Z" stroke="white" stroke-width="2" stroke-linecap="round" stroke-linejoin="round"/>
<path d="M21.125 2.8125V6.5625" stroke="white" stroke-width="2" stroke-linecap="round" stroke-linejoin="round"/>
<path d="M9.875 2.8125V6.5625" stroke="white" stroke-width="2" stroke-linecap="round" stroke-linejoin="round"/>
<path d="M5.1875 10.3125H25.8125" stroke="white" stroke-width="2" stroke-linecap="round" stroke-linejoin="round"/>
<path d="M11.2812 15H14.5625L12.6875 17.3438C12.9961 17.3432 13.3 17.4189 13.5723 17.564C13.8447 17.7091 14.077 17.9191 14.2487 18.1755C14.4204 18.4319 14.5261 18.7267 14.5566 19.0338C14.587 19.3409 14.5412 19.6507 14.4232 19.9358C14.3051 20.221 14.1186 20.4725 13.88 20.6683C13.6415 20.864 13.3583 20.9978 13.0556 21.0579C12.7529 21.1179 12.4401 21.1024 12.1449 21.0126C11.8497 20.9227 11.5812 20.7614 11.3633 20.543" stroke="white" stroke-width="2" stroke-linecap="round" stroke-linejoin="round"/>
<path d="M17.375 16.4062L19.25 15V21.0938" stroke="white" stroke-width="2" stroke-linecap="round" stroke-linejoin="round"/>
</svg>
